<?xml version="1.0" standalone="no"?><!DOCTYPE svg PUBLIC "-//W3C//DTD SVG 1.1//EN" "http://www.w3.org/Graphics/SVG/1.1/DTD/svg11.dtd"><svg t="1661274213698" class="icon" viewBox="0 0 1024 1024" version="1.1" xmlns="http://www.w3.org/2000/svg" p-id="2772" xmlns:xlink="http://www.w3.org/1999/xlink" width="20" height="20"><defs><style type="text/css">:not(pre) { -webkit-text-stroke: 0px !important; }
@font-face { font-family: feedback-iconfont; src: url("//at.alicdn.com/t/font_1031158_u69w8yhxdu.woff2?t=1630033759944") format("woff2"), url("//at.alicdn.com/t/font_1031158_u69w8yhxdu.woff?t=1630033759944") format("woff"), url("//at.alicdn.com/t/font_1031158_u69w8yhxdu.ttf?t=1630033759944") format("truetype"); }
</style></defs><path d="M905.244444 679.879111s-456.704-117.731556-696.490666-184.746667a136.248889 136.248889 0 0 1-44.231111-22.072888 1814.300444 1814.300444 0 0 1-58.168889-47.018667c-10.154667-8.504889-23.836444-19.114667-24.576-36.209778L56.888889 235.747556h74.894222l93.269333 118.385777s3.697778 4.920889 6.599112 6.058667l110.961777 35.726222c6.428444 0.938667 20.508444-1.336889 16.753778-15.274666L299.804444 142.222222l132.380445 25.173334 167.68 264.135111s1.024 8.476444 215.552 57.799111c32.170667 8.817778 52.252444 22.698667 73.614222 41.244444 32 29.041778 80.469333 100.152889 77.824 123.192889-1.877333 20.053333-24.888889 33.848889-61.610667 26.112zM227.185778 824.888889h682.666666a28.444444 28.444444 0 0 1 0 56.888889h-682.666666a28.444444 28.444444 0 0 1 0-56.888889z" p-id="2773" fill="#2c2c2c"></path><path d="M905.244444 679.879111s-456.704-117.731556-696.490666-184.746667a136.248889 136.248889 0 0 1-44.231111-22.072888 1814.300444 1814.300444 0 0 1-58.168889-47.018667c-10.154667-8.504889-23.836444-19.114667-24.576-36.209778L56.888889 235.747556h74.894222l93.269333 118.385777s3.697778 4.920889 6.599112 6.058667l110.961777 35.726222c6.428444 0.938667 20.508444-1.336889 16.753778-15.274666L299.804444 142.222222l132.380445 25.173334 167.68 264.135111s1.024 8.476444 215.552 57.799111c32.170667 8.817778 52.252444 22.698667 73.614222 41.244444 32 29.041778 80.469333 100.152889 77.824 123.192889-1.877333 20.053333-24.888889 33.848889-61.610667 26.112zM227.185778 824.888889h682.666666a28.444444 28.444444 0 0 1 0 56.888889h-682.666666a28.444444 28.444444 0 0 1 0-56.888889z" p-id="2774" fill="red"></path></svg>