<?xml version="1.0" standalone="no"?><!DOCTYPE svg PUBLIC "-//W3C//DTD SVG 1.1//EN" "http://www.w3.org/Graphics/SVG/1.1/DTD/svg11.dtd"><svg t="1659504320950" class="icon" viewBox="0 0 1024 1024" version="1.1" xmlns="http://www.w3.org/2000/svg" p-id="3806" xmlns:xlink="http://www.w3.org/1999/xlink" width="30" height="30"><defs><style type="text/css">:not(pre) { -webkit-text-stroke: 0px !important; }
@font-face { font-family: feedback-iconfont; src: url("//at.alicdn.com/t/font_1031158_u69w8yhxdu.woff2?t=1630033759944") format("woff2"), url("//at.alicdn.com/t/font_1031158_u69w8yhxdu.woff?t=1630033759944") format("woff"), url("//at.alicdn.com/t/font_1031158_u69w8yhxdu.ttf?t=1630033759944") format("truetype"); }
</style></defs><path d="M832 192h-160l-32 224h96l96-224zM736 64H288L192 160h640l-96-96zM192 192h160l32 224H288L192 192zM393.6 192l32 224h172.8l32-224h-236.8zM736 448H288a64 64 0 0 0 64 64h86.4l-25.6 384H352v64h320v-64h-60.8l-25.6-384H672a64 64 0 0 0 64-64z" fill="#d81e06" p-id="3807"></path></svg>