<?xml version="1.0" standalone="no"?><!DOCTYPE svg PUBLIC "-//W3C//DTD SVG 1.1//EN" "http://www.w3.org/Graphics/SVG/1.1/DTD/svg11.dtd"><svg t="1661274183863" class="icon" viewBox="0 0 1024 1024" version="1.1" xmlns="http://www.w3.org/2000/svg" p-id="2295" xmlns:xlink="http://www.w3.org/1999/xlink" width="20" height="20"><defs><style type="text/css">:not(pre) { -webkit-text-stroke: 0px !important; }
@font-face { font-family: feedback-iconfont; src: url("//at.alicdn.com/t/font_1031158_u69w8yhxdu.woff2?t=1630033759944") format("woff2"), url("//at.alicdn.com/t/font_1031158_u69w8yhxdu.woff?t=1630033759944") format("woff"), url("//at.alicdn.com/t/font_1031158_u69w8yhxdu.ttf?t=1630033759944") format("truetype"); }
</style></defs><path d="M937.813333 259.982222s-388.721778 211.000889-596.536889 318.321778a131.982222 131.982222 0 0 1-45.141333 13.368889c-27.278222 2.56-44.145778 3.783111-72.078222 5.489778-12.771556 0.739556-29.411556 2.360889-41.955556-8.590223L56.888889 501.589333l50.147555-47.473777 145.834667 19.825777s5.944889 0.938667 8.704-0.170666l99.470222-46.478223c4.949333-3.470222 12.8-13.880889 0.455111-20.821333l-229.376-118.528L257.479111 216.746667l300.913778 71.224889s6.656 5.006222 185.059555-98.104889c27.733333-14.506667 50.972444-18.005333 78.307556-19.143111 41.898667-0.938667 124.472889 15.758222 138.922667 32.796444 12.856889 14.592 7.168 38.4-22.869334 56.490667zM113.777778 796.501333h654.222222a28.444444 28.444444 0 0 1 0 56.888889H113.777778a28.444444 28.444444 0 0 1 0-56.888889z" p-id="2296" fill="#d81e00"></path><path d="M937.813333 259.982222s-388.721778 211.000889-596.536889 318.321778a131.982222 131.982222 0 0 1-45.141333 13.368889c-27.278222 2.56-44.145778 3.783111-72.078222 5.489778-12.771556 0.739556-29.411556 2.360889-41.955556-8.590223L56.888889 501.589333l50.147555-47.473777 145.834667 19.825777s5.944889 0.938667 8.704-0.170666l99.470222-46.478223c4.949333-3.470222 12.8-13.880889 0.455111-20.821333l-229.376-118.528L257.479111 216.746667l300.913778 71.224889s6.656 5.006222 185.059555-98.104889c27.733333-14.506667 50.972444-18.005333 78.307556-19.143111 41.898667-0.938667 124.472889 15.758222 138.922667 32.796444 12.856889 14.592 7.168 38.4-22.869334 56.490667zM113.777778 796.501333h654.222222a28.444444 28.444444 0 0 1 0 56.888889H113.777778a28.444444 28.444444 0 0 1 0-56.888889z" p-id="2297" fill="#538b2f"></path></svg>